<svg xmlns="http://www.w3.org/2000/svg" viewBox="0 0 800 600">
  <defs>
    <linearGradient id="ocean-gradient" x1="0%" y1="0%" x2="100%" y2="100%">
      <stop offset="0%" style="stop-color:#1a237e" />
      <stop offset="100%" style="stop-color:#0288d1" />
    </linearGradient>
  </defs>
  <g fill="url(#ocean-gradient)">
    <!-- 海浪背景 -->
    <path d="M0,400 C200,350 400,450 800,400 L800,600 L0,600 Z" opacity="0.1"/>
    <path d="M0,450 C200,400 400,500 800,450 L800,600 L0,600 Z" opacity="0.2"/>
    <path d="M0,500 C200,450 400,550 800,500 L800,600 L0,600 Z" opacity="0.3"/>
    
    <!-- 鱼群剪影 -->
    <g transform="translate(100,200)">
      <path d="M0,0 C10,-5 20,-5 30,0 L40,5 L30,10 C20,15 10,15 0,10 Z" />
      <path d="M35,0 L40,3 L35,6" stroke-width="2" stroke="currentColor" fill="none"/>
    </g>
    <g transform="translate(300,250) scale(1.5)">
      <path d="M0,0 C10,-5 20,-5 30,0 L40,5 L30,10 C20,15 10,15 0,10 Z" />
      <path d="M35,0 L40,3 L35,6" stroke-width="2" stroke="currentColor" fill="none"/>
    </g>
    <g transform="translate(500,150) scale(0.8)">
      <path d="M0,0 C10,-5 20,-5 30,0 L40,5 L30,10 C20,15 10,15 0,10 Z" />
      <path d="M35,0 L40,3 L35,6" stroke-width="2" stroke="currentColor" fill="none"/>
    </g>
    
    <!-- 气泡效果 -->
    <circle cx="150" cy="300" r="5" opacity="0.6"/>
    <circle cx="400" cy="250" r="8" opacity="0.4"/>
    <circle cx="600" cy="350" r="6" opacity="0.5"/>
    <circle cx="250" cy="400" r="4" opacity="0.7"/>
    <circle cx="550" cy="200" r="7" opacity="0.3"/>
    
    <!-- 海草 -->
    <path d="M100,500 Q120,450 100,400 Q80,450 100,500" opacity="0.4"/>
    <path d="M700,500 Q680,440 700,380 Q720,440 700,500" opacity="0.4"/>
    <path d="M400,500 Q420,460 400,420 Q380,460 400,500" opacity="0.4"/>
  </g>
</svg> 